<svg width="37" height="37" viewBox="0 0 37 37" fill="none" xmlns="http://www.w3.org/2000/svg">
<path d="M18.7858 36.4286C28.8453 36.4286 37.0001 28.2738 37.0001 18.2143C37.0001 8.15481 28.8453 0 18.7858 0C8.72635 0 0.571533 8.15481 0.571533 18.2143C0.571533 28.2738 8.72635 36.4286 18.7858 36.4286Z" fill="#4169E1"/>
<path d="M29.2839 25.3425C28.7541 25.417 26.1627 25.3425 26.0281 25.3425C25.3582 25.351 24.712 25.0952 24.2295 24.6304C23.683 24.1047 23.1946 23.5252 22.6606 22.9746C22.5026 22.8075 22.3317 22.6531 22.1493 22.513C21.7229 22.1839 21.3007 22.2585 21.0999 22.7614C20.9431 23.3049 20.8336 23.861 20.7729 24.4235C20.7377 24.9326 20.4148 25.2514 19.8435 25.2866C19.4896 25.3052 19.1357 25.3114 18.7859 25.3031C17.5111 25.295 16.2563 24.985 15.1244 24.3986C13.8996 23.7161 12.8325 22.7831 11.9928 21.6603C10.6122 19.8968 9.50901 17.9595 8.52378 15.9621C8.47203 15.8628 7.46197 13.7143 7.43713 13.6129C7.34606 13.2734 7.43713 12.9485 7.71656 12.8367C7.89456 12.7684 11.2228 12.8367 11.2787 12.8367C11.5261 12.8346 11.7678 12.9112 11.9688 13.0556C12.1697 13.2 12.3195 13.4046 12.3964 13.6398C13.0116 15.2151 13.854 16.6921 14.8967 18.0236C15.0426 18.2017 15.2134 18.3578 15.4038 18.4873C15.675 18.6715 15.9316 18.6073 16.0434 18.2948C16.1758 17.8611 16.2537 17.4127 16.2752 16.9597C16.2938 16.0615 16.2752 15.4695 16.2255 14.5733C16.1924 13.9979 15.9896 13.4928 15.1409 13.3314C14.8802 13.2858 14.8574 13.0706 15.025 12.8553C15.3748 12.4082 15.853 12.3379 16.389 12.311C17.188 12.2654 17.9869 12.2965 18.7859 12.311H18.9597C19.3075 12.3097 19.6543 12.3451 19.9946 12.4165C20.1958 12.4572 20.3784 12.5618 20.5153 12.7147C20.6522 12.8677 20.736 13.0607 20.7543 13.2651C20.7951 13.4918 20.8125 13.7221 20.806 13.9523C20.7853 14.9334 20.7377 15.9124 20.7274 16.8935C20.7178 17.282 20.7532 17.6702 20.8329 18.0505C20.9468 18.5721 21.3048 18.7025 21.6608 18.3258C22.1218 17.8388 22.5446 17.3171 22.9255 16.7652C23.599 15.7593 24.1546 14.6794 24.5813 13.5466C24.8131 12.965 24.9953 12.8367 25.6162 12.8367H29.1473C29.3573 12.833 29.5666 12.8609 29.7683 12.9195C29.8396 12.9382 29.9064 12.9715 29.9643 13.0173C30.0222 13.063 30.07 13.1202 30.1048 13.1853C30.1396 13.2504 30.1606 13.322 30.1664 13.3956C30.1723 13.4691 30.1628 13.5431 30.1388 13.6129C29.9649 14.387 29.5468 15.0472 29.1039 15.6827C28.3856 16.701 27.6281 17.6925 26.8933 18.6942C26.8004 18.8271 26.7154 18.9653 26.6387 19.1082C26.3614 19.607 26.3821 19.8865 26.7836 20.3025C27.4252 20.9607 28.1103 21.5796 28.7292 22.2585C29.1836 22.752 29.5936 23.2846 29.9545 23.8501C30.4078 24.5518 30.1284 25.2224 29.2839 25.3425Z" fill="white"/>
</svg>
