<svg width="37" height="37" viewBox="0 0 37 37" fill="none" xmlns="http://www.w3.org/2000/svg">
<g clip-path="url(#clip0_196_2)">
<path d="M18.5 37C28.7173 37 37 28.7173 37 18.5C37 8.28273 28.7173 0 18.5 0C8.28273 0 0 8.28273 0 18.5C0 28.7173 8.28273 37 18.5 37Z" fill="#E21A20"/>
<path fill-rule="evenodd" clip-rule="evenodd" d="M28.5074 15.5862C28.3657 13.635 28.0102 11.6202 25.5156 11.4728C20.8414 11.2063 16.1558 11.2063 11.4816 11.4728C8.98698 11.6173 8.63143 13.635 8.48979 15.5862C8.34455 17.5259 8.34455 19.4739 8.48979 21.4137C8.63143 23.3648 8.98698 25.3796 11.4816 25.527C16.1558 25.7935 20.8414 25.7935 25.5156 25.527C28.0102 25.3825 28.3657 23.3648 28.5074 21.4137C28.6526 19.4739 28.6526 17.5259 28.5074 15.5862ZM16.4766 21.1015V15.3202L21.9688 18.2109L16.4766 21.1015Z" fill="white"/>
</g>
<defs>
<clipPath id="clip0_196_2">
<rect width="37" height="37" fill="white"/>
</clipPath>
</defs>
</svg>
